<svg width="152" height="45" viewBox="0 0 152 45" fill="none" xmlns="http://www.w3.org/2000/svg">
<path d="M90.4116 6.0614L90.3647 10.307C89.1437 9.34211 88.0009 8.85965 86.9365 8.85965C85.7781 8.85965 84.8545 9.27778 84.1658 10.114C83.477 10.9503 83.1326 11.9634 83.1326 13.1535C83.1326 14.2471 83.43 15.2763 84.0249 16.2412C84.6197 17.2061 85.3398 18.1067 86.1851 18.943C87.0617 19.7792 87.9227 20.6637 88.768 21.5965C89.6446 22.4971 90.3803 23.6228 90.9752 24.9737C91.57 26.3246 91.8674 27.8202 91.8674 29.4605C91.8674 31.8406 91.21 33.867 89.895 35.5395C88.6114 37.1798 86.8426 38 84.5884 38C82.8352 38 81.3011 37.4854 79.9862 36.4561V32.1623C81.4576 33.288 82.8195 33.8509 84.0718 33.8509C85.2615 33.8509 86.1694 33.4327 86.7956 32.5965C87.453 31.7602 87.7818 30.7149 87.7818 29.4605C87.7818 28.2383 87.4687 27.1126 86.8426 26.0833C86.2477 25.0541 85.5276 24.1374 84.6823 23.3333C83.837 22.4971 82.9761 21.6447 82.0995 20.7763C81.2541 19.8757 80.5184 18.7822 79.8923 17.4956C79.2974 16.2091 79 14.7778 79 13.2018C79 10.7895 79.6105 8.82748 80.8315 7.31579C82.0525 5.77193 83.8057 5 86.0912 5C87.6252 5 89.0654 5.3538 90.4116 6.0614Z" fill="#202020"/>
<path d="M105.501 9.19737H100.711V37.5658H96.5782V9.19737H91.7882V5.38596H105.501V9.19737Z" fill="#202020"/>
<path d="M120.557 37.5658H116.377L115.203 31.2939H109.004L107.83 37.5658H103.745L110.554 5.38596H113.888L120.557 37.5658ZM109.615 27.9649H114.593C113.34 20.7924 112.526 15.3567 112.151 11.6579C111.838 14.9708 110.992 20.4064 109.615 27.9649Z" fill="#202020"/>
<path d="M136.682 5.38596V29.0263C136.682 32.0819 136.181 34.3494 135.179 35.8289C134.178 37.2763 132.252 38 129.403 38C126.711 38 124.848 37.2442 123.815 35.7325C122.782 34.2208 122.265 32.0336 122.265 29.1711V5.38596H126.398V29.0263C126.398 29.7661 126.429 30.3772 126.492 30.8596C126.554 31.3099 126.679 31.8085 126.867 32.3553C127.055 32.8699 127.368 33.2558 127.806 33.5132C128.276 33.7705 128.855 33.8991 129.544 33.8991C130.139 33.8991 130.64 33.8026 131.047 33.6096C131.454 33.3845 131.751 33.1594 131.939 32.9342C132.127 32.6769 132.268 32.2749 132.362 31.7281C132.456 31.1813 132.503 30.7792 132.503 30.5219C132.534 30.2325 132.55 29.7339 132.55 29.0263V5.38596H136.682Z" fill="#202020"/>
<path d="M152 9.19737H147.21V37.5658H143.077V9.19737H138.287V5.38596H152V9.19737Z" fill="#202020"/>
<path fill-rule="evenodd" clip-rule="evenodd" d="M68 35.1453C60.8735 41.1468 48.1876 45 33.987 45C19.7855 45 7.13151 41.1492 0 35.1611L2.01429 33.013C8.40615 38.3801 20.2375 42.1282 33.987 42.1282C47.7376 42.1282 59.5977 38.3768 65.9824 33L68 35.1453Z" fill="#202020"/>
<path fill-rule="evenodd" clip-rule="evenodd" d="M33.4915 38.1686C41.5272 38.1686 48.3606 36.0047 51.9803 33L54 35.1146C49.638 38.7355 41.978 41 33.4915 41C25.0046 41 17.3643 38.7411 13 35.1303L15.016 33.0126C18.6395 36.0104 25.456 38.1686 33.4915 38.1686Z" fill="#202020"/>
<path d="M38.6527 10.2444C37.5759 11.4788 35.9232 11.988 34.3244 12.0466C32.7257 12.1053 31.1449 11.7535 29.5672 11.4819C27.9895 11.2103 26.2137 10.7073 24.798 11.4819L23.1092 12.383C22.6344 12.6884 22.0976 12.8774 21.5405 12.9354C21.0529 12.9086 20.5724 12.8045 20.1157 12.6268C18.1717 12.0475 16.0865 12.2494 14.2817 13.1915C12.8329 13.9568 11.6541 15.1542 10.3823 16.1973C9.1105 17.2403 7.62874 18.3945 6 18.4438C8.72656 18.3297 11.4561 19.5548 14.1287 19.0055C15.7243 18.6718 17.1403 17.7348 18.097 16.3793C18.571 15.7035 19.0929 14.8363 19.8968 14.8795C20.4037 15.5554 19.8248 16.4812 19.5038 17.2681C18.8079 18.9839 19.4108 21.1317 18.4 22.6716C17.4701 24.0881 15.5325 24.4214 14.4256 25.6928C13.6998 26.526 13.4178 27.6555 13.1119 28.7294C12.6293 30.418 12.0278 32.0683 11.3121 33.6669C11.0122 34.3057 10.7122 35.0217 10.9402 35.6883C11.2402 36.6141 12.497 36.8764 13.3608 36.4628C14.2247 36.0493 14.7886 35.1852 15.3105 34.3644L17.9411 30.2107C18.3623 29.4763 18.879 28.8046 19.4768 28.214C20.6166 27.1864 22.1764 26.8192 23.5682 26.239C25.3032 25.5238 26.8811 24.4577 28.2084 23.1037C28.3924 22.877 28.6315 22.7045 28.9013 22.6037C29.2359 22.5599 29.5753 22.6304 29.8672 22.8043C32.5137 24.0254 35.3667 24.7026 38.2658 24.7979C39.6631 24.8331 41.0586 24.6732 42.4141 24.3226C43.6949 23.9832 44.5648 23.045 45.7136 24.0572C46.4215 24.6744 47.0634 25.3873 47.7922 25.986C48.5211 26.5846 49.379 27.1031 50.0329 27.8221C50.5268 28.4097 50.947 29.0587 51.2837 29.7539C52.3955 31.8626 53.3812 34.0392 54.2352 36.2715C54.2963 36.4866 54.4099 36.6821 54.5651 36.8393C54.9341 37.1479 55.48 36.9535 55.9119 36.7437C56.7248 36.3487 57.6576 35.7716 57.6756 34.8458C57.653 34.4754 57.5506 34.1149 57.3757 33.7904C55.3653 29.2978 52.8679 25.0534 49.9309 21.1379C49.7304 20.9149 49.5934 20.6395 49.535 20.3417C49.5364 20.0162 49.6213 19.6969 49.7809 19.4159C50.5158 17.7125 50.4768 15.7683 50.2458 13.9198C50.0149 12.0713 49.6069 10.2352 49.6459 8.36505C49.6459 8.05646 49.7599 7.63059 50.0719 7.61824C50.3838 7.6059 50.5128 7.9793 50.6388 8.25704C51.0257 9.10568 51.9586 9.54698 52.8524 9.72905C53.7463 9.91112 54.6821 9.91113 55.552 10.2166C56.6048 10.59 57.6517 11.4171 58.7105 11.0961C59.0313 10.9881 59.3178 10.7929 59.5396 10.531C59.7614 10.2692 59.9102 9.95047 59.9703 9.6087C60.0229 9.26565 60.0055 8.91508 59.9193 8.5793C59.833 8.24353 59.6798 7.9299 59.4693 7.65836C59.1624 7.28296 58.8095 6.95 58.4195 6.66777C56.8688 5.43338 55.2071 4.19899 53.6533 2.9646V0.187225C52.8704 0.452618 52.0036 0.252027 51.1937 0.106986C48.9291 -0.300362 46.6014 0.610005 44.3278 0.285978C44.3884 0.614329 44.5187 0.924841 44.7096 1.19532C44.9004 1.46579 45.147 1.68954 45.4316 1.85056C44.215 1.71567 42.9848 1.89602 41.8532 2.37518C41.1633 2.68378 40.4914 3.08186 39.7535 3.13433C40.2468 3.49695 40.8105 3.74541 41.406 3.8626C42.0014 3.9798 42.6145 3.96296 43.203 3.81324C41.7782 5.04763 39.7416 5.04763 37.8848 4.98591C38.0155 5.32889 38.2174 5.63835 38.4764 5.89262C38.7355 6.14689 39.0455 6.33983 39.3846 6.45792C39.8225 6.61222 40.3055 6.63691 40.7104 6.87144C39.0427 7.97931 36.775 7.92067 35.2573 9.2353L39.2256 9.26924C38.5902 9.70042 37.8956 10.0312 37.165 10.2506C37.6607 10.2753 38.1576 10.2443 38.6467 10.158C38.5837 10.05 38.6677 10.3678 38.6527 10.2444Z" fill="#302A25"/>
<path d="M45 25L43.5043 28.8107C43.3473 29.2753 43.1189 29.7175 42.826 30.1241C42.4485 30.5444 41.997 30.9049 41.4898 31.1909C39.9704 32.1405 38.4035 33.0223 36.84 33.9071C36.0158 34.3727 35.1612 34.8475 34.2014 34.9739C34.0641 35.0056 33.9207 35.0085 33.782 34.9823C33.6433 34.9561 33.513 34.9016 33.401 34.8228C33.3034 34.718 33.2327 34.5948 33.1941 34.4621C32.9296 33.8497 32.9357 33.1682 33.211 32.5598C33.5231 32.0017 34.1505 31.6595 34.7304 31.3265C35.5435 30.8584 36.3229 30.3435 37.0638 29.785C37.758 29.2831 38.3731 28.697 38.8919 28.043C39.2427 27.5749 39.4967 27.0525 39.6414 26.5015C39.8042 25.8849 39.9365 25.8849 40.6249 25.7708L45 25Z" fill="#302A25"/>
<path d="M23.9194 28.7146C23.5573 28.8806 23.1456 29.0767 23.0239 29.4871C22.9623 29.8189 23.0207 30.1639 23.187 30.4497C23.7867 31.7563 24.7347 32.8276 25.4919 34.0346C25.8606 34.696 26.2716 35.3283 26.7218 35.9266C27.181 36.5297 27.8372 36.9139 28.5514 36.9978C29.2616 37.0371 30.0161 36.5422 30.1571 35.7908C30.2109 35.327 30.1277 34.8565 29.9194 34.448C29.3335 33.1022 28.2999 32.0339 27.6559 30.7273C27.472 30.4097 27.3831 30.0374 27.4017 29.6621C27.4976 29.2236 27.7276 28.834 28.0539 28.5577C29.1262 27.4533 30.3809 26.4454 31 25C30.2676 25.0724 29.4164 25.0302 28.7061 25.2474C28.2225 25.3983 27.9102 25.8721 27.5454 26.2251C26.4755 27.2745 25.2491 28.1165 23.9194 28.7146Z" fill="#302A25"/>
</svg>
