<svg width="20" height="19" viewBox="0 0 20 19" fill="none" xmlns="http://www.w3.org/2000/svg">
<path d="M9.04894 1.0584C9.3483 0.137089 10.6517 0.137088 10.9511 1.0584L12.4697 5.73216C12.6035 6.14418 12.9875 6.42314 13.4207 6.42314H18.335C19.3037 6.42314 19.7065 7.66276 18.9228 8.23216L14.947 11.1207C14.5966 11.3753 14.4499 11.8267 14.5838 12.2387L16.1024 16.9125C16.4017 17.8338 15.3472 18.5999 14.5635 18.0305L10.5878 15.142C10.2373 14.8873 9.7627 14.8873 9.41221 15.142L5.43648 18.0305C4.65276 18.5999 3.59828 17.8338 3.89763 16.9125L5.41623 12.2387C5.55011 11.8267 5.40345 11.3753 5.05296 11.1207L1.07722 8.23216C0.293507 7.66276 0.696283 6.42314 1.66501 6.42314H6.57929C7.01252 6.42314 7.39647 6.14418 7.53035 5.73216L9.04894 1.0584Z" fill="#202020"/>
<path d="M9.04894 1.0584C9.3483 0.137089 10.6517 0.137088 10.9511 1.0584L12.4697 5.73216C12.6035 6.14418 12.9875 6.42314 13.4207 6.42314H18.335C19.3037 6.42314 19.7065 7.66276 18.9228 8.23216L14.947 11.1207C14.5966 11.3753 14.4499 11.8267 14.5838 12.2387L16.1024 16.9125C16.4017 17.8338 15.3472 18.5999 14.5635 18.0305L10.5878 15.142C10.2373 14.8873 9.7627 14.8873 9.41221 15.142L5.43648 18.0305C4.65276 18.5999 3.59828 17.8338 3.89763 16.9125L5.41623 12.2387C5.55011 11.8267 5.40345 11.3753 5.05296 11.1207L1.07722 8.23216C0.293507 7.66276 0.696283 6.42314 1.66501 6.42314H6.57929C7.01252 6.42314 7.39647 6.14418 7.53035 5.73216L9.04894 1.0584Z" stroke="#202020"/>
</svg>
